<mxfile host="app.diagrams.net" agent="Mozilla/5.0 (Windows NT 10.0; Win64; x64) AppleWebKit/537.36 (KHTML, like Gecko) Chrome/141.0.0.0 Safari/537.36" version="28.2.8">
  <diagram name="Page-1" id="F7NR3_ZFdPGj3Lq_H9ab">
    <mxGraphModel dx="1426" dy="751" grid="1" gridSize="10" guides="1" tooltips="1" connect="1" arrows="1" fold="1" page="1" pageScale="1" pageWidth="850" pageHeight="1100" math="0" shadow="0">
      <root>
        <mxCell id="0" />
        <mxCell id="1" parent="0" />
        <mxCell id="cnFwRMpYDFwHd6vWoiS3-35" value="" style="rounded=0;whiteSpace=wrap;html=1;fillColor=none;" vertex="1" parent="1">
          <mxGeometry x="50" y="480" width="680" height="180" as="geometry" />
        </mxCell>
        <mxCell id="cnFwRMpYDFwHd6vWoiS3-19" value="" style="rounded=0;whiteSpace=wrap;html=1;fillColor=none;" vertex="1" parent="1">
          <mxGeometry x="200" y="20" width="640" height="270" as="geometry" />
        </mxCell>
        <mxCell id="cnFwRMpYDFwHd6vWoiS3-30" style="edgeStyle=orthogonalEdgeStyle;rounded=0;orthogonalLoop=1;jettySize=auto;html=1;entryX=0.5;entryY=0;entryDx=0;entryDy=0;" edge="1" parent="1" source="2" target="cnFwRMpYDFwHd6vWoiS3-29">
          <mxGeometry relative="1" as="geometry">
            <Array as="points">
              <mxPoint x="716" y="120" />
            </Array>
          </mxGeometry>
        </mxCell>
        <mxCell id="cnFwRMpYDFwHd6vWoiS3-32" value="Transforme" style="edgeLabel;html=1;align=center;verticalAlign=middle;resizable=0;points=[];" vertex="1" connectable="0" parent="cnFwRMpYDFwHd6vWoiS3-30">
          <mxGeometry x="0.0536" y="-1" relative="1" as="geometry">
            <mxPoint as="offset" />
          </mxGeometry>
        </mxCell>
        <mxCell id="2" value="P_FUN-SamuelSallaku" style="whiteSpace=wrap;strokeWidth=2;" parent="1" vertex="1">
          <mxGeometry x="280" y="70" width="260" height="78" as="geometry" />
        </mxCell>
        <mxCell id="3" value="Fenêtre de choix de fichier" style="whiteSpace=wrap;strokeWidth=2;" parent="1" vertex="1">
          <mxGeometry x="50" y="310" width="239" height="54" as="geometry" />
        </mxCell>
        <mxCell id="cnFwRMpYDFwHd6vWoiS3-26" style="edgeStyle=orthogonalEdgeStyle;rounded=0;orthogonalLoop=1;jettySize=auto;html=1;" edge="1" parent="1" source="4" target="cnFwRMpYDFwHd6vWoiS3-25">
          <mxGeometry relative="1" as="geometry" />
        </mxCell>
        <mxCell id="cnFwRMpYDFwHd6vWoiS3-27" value="Retourne" style="edgeLabel;html=1;align=center;verticalAlign=middle;resizable=0;points=[];" vertex="1" connectable="0" parent="cnFwRMpYDFwHd6vWoiS3-26">
          <mxGeometry x="0.024" y="-3" relative="1" as="geometry">
            <mxPoint x="1" y="1" as="offset" />
          </mxGeometry>
        </mxCell>
        <UserObject label="CSV" link="https://docs.microsoft.com/en-us/dotnet/api/system.io.file" tooltip="Documentation sur System.IO.File" id="4">
          <mxCell style="whiteSpace=wrap;strokeWidth=2;" parent="1" vertex="1">
            <mxGeometry x="400" y="310" width="87" height="54" as="geometry" />
          </mxCell>
        </UserObject>
        <mxCell id="6" value="Base de Données SQLite" style="whiteSpace=wrap;strokeWidth=2;" parent="1" vertex="1">
          <mxGeometry x="600" y="410" width="231" height="54" as="geometry" />
        </mxCell>
        <mxCell id="7" value="Interface Utilisateur" style="whiteSpace=wrap;strokeWidth=2;" parent="1" vertex="1">
          <mxGeometry x="455" y="569" width="206" height="54" as="geometry" />
        </mxCell>
        <mxCell id="8" value="Données Chargées" style="whiteSpace=wrap;strokeWidth=2;" parent="1" vertex="1">
          <mxGeometry x="140" y="569" width="190" height="54" as="geometry" />
        </mxCell>
        <mxCell id="10" value="Lance" style="curved=1;startArrow=none;endArrow=block;exitX=0.21;exitY=1;entryX=0.5;entryY=0;" parent="1" source="2" target="3" edge="1">
          <mxGeometry relative="1" as="geometry">
            <Array as="points" />
          </mxGeometry>
        </mxCell>
        <mxCell id="11" value="Récupère" style="curved=1;startArrow=none;endArrow=block;exitX=1;exitY=0.5;entryX=0;entryY=0.25;entryDx=0;entryDy=0;exitDx=0;exitDy=0;" parent="1" source="3" target="4" edge="1">
          <mxGeometry x="-0.229" y="19" relative="1" as="geometry">
            <Array as="points" />
            <mxPoint x="399.5799999999999" y="316" as="targetPoint" />
            <mxPoint x="1" as="offset" />
          </mxGeometry>
        </mxCell>
        <mxCell id="14" value="Permet d&#39;accéder" style="curved=1;startArrow=none;endArrow=block;entryX=0.5;entryY=0;" parent="1" source="6" target="7" edge="1">
          <mxGeometry relative="1" as="geometry">
            <Array as="points" />
            <mxPoint x="745.5" y="510" as="sourcePoint" />
          </mxGeometry>
        </mxCell>
        <mxCell id="15" value="Affiche" style="curved=1;startArrow=none;endArrow=block;exitX=0;exitY=0.75;entryX=0.911;entryY=1.019;exitDx=0;exitDy=0;entryDx=0;entryDy=0;entryPerimeter=0;" parent="1" source="7" target="8" edge="1">
          <mxGeometry relative="1" as="geometry">
            <Array as="points" />
          </mxGeometry>
        </mxCell>
        <mxCell id="18" value="Écrit" style="curved=1;startArrow=none;endArrow=block;entryX=0.697;entryY=0.056;entryDx=0;entryDy=0;entryPerimeter=0;exitX=1;exitY=0.25;exitDx=0;exitDy=0;" parent="1" source="2" target="6" edge="1">
          <mxGeometry x="-0.3827" y="-41" relative="1" as="geometry">
            <Array as="points">
              <mxPoint x="870" y="100" />
              <mxPoint x="720" y="380" />
            </Array>
            <mxPoint x="677.2600000000002" y="243" as="sourcePoint" />
            <mxPoint x="1" as="offset" />
          </mxGeometry>
        </mxCell>
        <mxCell id="19" value="Interact avec" style="curved=1;startArrow=none;endArrow=block;exitX=0.958;exitY=0.074;entryX=0;entryY=0.5;entryDx=0;entryDy=0;exitDx=0;exitDy=0;exitPerimeter=0;" parent="1" source="8" target="7" edge="1">
          <mxGeometry relative="1" as="geometry">
            <Array as="points" />
          </mxGeometry>
        </mxCell>
        <mxCell id="cnFwRMpYDFwHd6vWoiS3-20" value="Visual Studio 2022" style="text;html=1;whiteSpace=wrap;strokeColor=none;fillColor=none;align=center;verticalAlign=middle;rounded=0;" vertex="1" parent="1">
          <mxGeometry x="425" y="30" width="165" height="30" as="geometry" />
        </mxCell>
        <mxCell id="cnFwRMpYDFwHd6vWoiS3-21" value="" style="sketch=0;pointerEvents=1;shadow=0;dashed=0;html=1;strokeColor=none;fillColor=#505050;labelPosition=center;verticalLabelPosition=bottom;verticalAlign=top;outlineConnect=0;align=center;shape=mxgraph.office.devices.workstation_visual_studio;" vertex="1" parent="1">
          <mxGeometry x="750" y="50" width="53" height="59" as="geometry" />
        </mxCell>
        <UserObject label="Données" link="https://docs.microsoft.com/en-us/dotnet/api/system.io.file" tooltip="Documentation sur System.IO.File" id="cnFwRMpYDFwHd6vWoiS3-25">
          <mxCell style="whiteSpace=wrap;strokeWidth=2;" vertex="1" parent="1">
            <mxGeometry x="410" y="202" width="87" height="54" as="geometry" />
          </mxCell>
        </UserObject>
        <mxCell id="cnFwRMpYDFwHd6vWoiS3-28" style="edgeStyle=orthogonalEdgeStyle;rounded=0;orthogonalLoop=1;jettySize=auto;html=1;entryX=0.885;entryY=0.974;entryDx=0;entryDy=0;entryPerimeter=0;" edge="1" parent="1" source="cnFwRMpYDFwHd6vWoiS3-25" target="2">
          <mxGeometry relative="1" as="geometry" />
        </mxCell>
        <mxCell id="cnFwRMpYDFwHd6vWoiS3-31" value="Récupère" style="edgeLabel;html=1;align=center;verticalAlign=middle;resizable=0;points=[];" vertex="1" connectable="0" parent="cnFwRMpYDFwHd6vWoiS3-28">
          <mxGeometry x="-0.2668" relative="1" as="geometry">
            <mxPoint as="offset" />
          </mxGeometry>
        </mxCell>
        <mxCell id="cnFwRMpYDFwHd6vWoiS3-33" style="edgeStyle=orthogonalEdgeStyle;rounded=0;orthogonalLoop=1;jettySize=auto;html=1;entryX=0.5;entryY=0;entryDx=0;entryDy=0;" edge="1" parent="1" source="cnFwRMpYDFwHd6vWoiS3-29" target="6">
          <mxGeometry relative="1" as="geometry" />
        </mxCell>
        <mxCell id="cnFwRMpYDFwHd6vWoiS3-34" value="Stocke" style="edgeLabel;html=1;align=center;verticalAlign=middle;resizable=0;points=[];" vertex="1" connectable="0" parent="cnFwRMpYDFwHd6vWoiS3-33">
          <mxGeometry x="-0.0385" y="2" relative="1" as="geometry">
            <mxPoint as="offset" />
          </mxGeometry>
        </mxCell>
        <UserObject label="Données Lisibles" link="https://docs.microsoft.com/en-us/dotnet/api/system.io.file" tooltip="Documentation sur System.IO.File" id="cnFwRMpYDFwHd6vWoiS3-29">
          <mxCell style="whiteSpace=wrap;strokeWidth=2;" vertex="1" parent="1">
            <mxGeometry x="672" y="148" width="87" height="54" as="geometry" />
          </mxCell>
        </UserObject>
        <mxCell id="cnFwRMpYDFwHd6vWoiS3-36" value="Programme Lancé" style="text;html=1;whiteSpace=wrap;strokeColor=none;fillColor=none;align=center;verticalAlign=middle;rounded=0;" vertex="1" parent="1">
          <mxGeometry x="110" y="490" width="140" height="40" as="geometry" />
        </mxCell>
      </root>
    </mxGraphModel>
  </diagram>
</mxfile>
